<?xml version="1.0" encoding="UTF-8" standalone="no"?>
<!-- Generator: Adobe Illustrator 19.0.0, SVG Export Plug-In . SVG Version: 6.00 Build 0)  -->

<svg
   xmlns:dc="http://purl.org/dc/elements/1.1/"
   xmlns:cc="http://creativecommons.org/ns#"
   xmlns:rdf="http://www.w3.org/1999/02/22-rdf-syntax-ns#"
   xmlns:svg="http://www.w3.org/2000/svg"
   xmlns="http://www.w3.org/2000/svg"
   xmlns:sodipodi="http://sodipodi.sourceforge.net/DTD/sodipodi-0.dtd"
   xmlns:inkscape="http://www.inkscape.org/namespaces/inkscape"
   version="1.1"
   id="Capa_1"
   x="0px"
   y="0px"
   viewBox="0 0 49 49"
   xml:space="preserve"
   sodipodi:docname="icon.svg"
   width="49"
   height="49"
   inkscape:version="0.92.4 5da689c313, 2019-01-14"
   inkscape:export-filename="/home/alexander/Projects/mobile/facuEvent/assets/icon.png"
   inkscape:export-xdpi="392.17017"
   inkscape:export-ydpi="392.17017"><metadata
   id="metadata69"><rdf:RDF><cc:Work
       rdf:about=""><dc:format>image/svg+xml</dc:format><dc:type
         rdf:resource="http://purl.org/dc/dcmitype/StillImage" /><dc:title></dc:title></cc:Work></rdf:RDF></metadata><defs
   id="defs67"><linearGradient
     gradientTransform="matrix(1.0000426,0,0,1,-4.2e-5,0)"
     y2="46"
     y1="2"
     x2="24"
     x1="24"
     gradientUnits="userSpaceOnUse"
     id="linearGradient4171"><stop
       style="stop-color:#1bc7ff;stop-opacity:1"
       offset="0"
       id="stop2" /><stop
       style="stop-color:#1ba7ff;stop-opacity:1"
       offset="1"
       id="stop4" /></linearGradient></defs><sodipodi:namedview
   pagecolor="#ffffff"
   bordercolor="#666666"
   borderopacity="1"
   objecttolerance="10"
   gridtolerance="10"
   guidetolerance="10"
   inkscape:pageopacity="0"
   inkscape:pageshadow="2"
   inkscape:window-width="1366"
   inkscape:window-height="740"
   id="namedview65"
   showgrid="false"
   showguides="false"
   inkscape:zoom="9.55088"
   inkscape:cx="33.219023"
   inkscape:cy="22.177473"
   inkscape:window-x="0"
   inkscape:window-y="0"
   inkscape:window-maximized="1"
   inkscape:current-layer="Capa_1" />














<g
   id="g34"
   transform="translate(0,-10)">
</g>
<g
   id="g36"
   transform="translate(0,-10)">
</g>
<g
   id="g38"
   transform="translate(0,-10)">
</g>
<g
   id="g40"
   transform="translate(0,-10)">
</g>
<g
   id="g42"
   transform="translate(0,-10)">
</g>
<g
   id="g44"
   transform="translate(0,-10)">
</g>
<g
   id="g46"
   transform="translate(0,-10)">
</g>
<g
   id="g48"
   transform="translate(0,-10)">
</g>
<g
   id="g50"
   transform="translate(0,-10)">
</g>
<g
   id="g52"
   transform="translate(0,-10)">
</g>
<g
   id="g54"
   transform="translate(0,-10)">
</g>
<g
   id="g56"
   transform="translate(0,-10)">
</g>
<g
   id="g58"
   transform="translate(0,-10)">
</g>
<g
   id="g60"
   transform="translate(0,-10)">
</g>
<g
   id="g62"
   transform="translate(0,-10)">
</g>
<g
   transform="matrix(1.0000426,0,0,1,-4.2e-5,0)"
   id="g15"><path
     inkscape:connector-curvature="0"
     d="m 36.31,5 c 5.859,4.062 9.688,10.831 9.688,18.5 0,12.426 -10.07,22.5 -22.5,22.5 -7.669,0 -14.438,-3.828 -18.5,-9.688 1.037,1.822 2.306,3.499 3.781,4.969 4.085,3.712 9.514,5.969 15.469,5.969 12.703,0 23,-10.298 23,-23 0,-5.954 -2.256,-11.384 -5.969,-15.469 C 39.81,7.306 38.132,6.037 36.31,5 Z m 4.969,3.781 c 3.854,4.113 6.219,9.637 6.219,15.719 0,12.703 -10.297,23 -23,23 -6.081,0 -11.606,-2.364 -15.719,-6.219 4.16,4.144 9.883,6.719 16.219,6.719 12.703,0 23,-10.298 23,-23 0,-6.335 -2.575,-12.06 -6.719,-16.219 z"
     style="opacity:0.05"
     id="path9" /><path
     inkscape:connector-curvature="0"
     d="m 41.28,8.781 c 3.712,4.085 5.969,9.514 5.969,15.469 0,12.703 -10.297,23 -23,23 -5.954,0 -11.384,-2.256 -15.469,-5.969 4.113,3.854 9.637,6.219 15.719,6.219 12.703,0 23,-10.298 23,-23 0,-6.081 -2.364,-11.606 -6.219,-15.719 z"
     style="opacity:0.1"
     id="path11" /><path
     inkscape:connector-curvature="0"
     d="M 31.25,2.375 C 39.865,5.529 46,13.792 46,23.505 c 0,12.426 -10.07,22.5 -22.5,22.5 -9.708,0 -17.971,-6.135 -21.12,-14.75 a 23,23 0 0 0 44.875,-7 23,23 0 0 0 -16,-21.875 z"
     style="opacity:0.2"
     id="path13" /></g><path
   inkscape:connector-curvature="0"
   style="opacity:1;fill:url(#linearGradient4171);fill-opacity:1;stroke-width:1.00002134"
   d="M 47.00196,24 A 23.000981,23.000001 0 0 1 24.000979,47 23.000981,23.000001 0 0 1 1,24 23.000981,23.000001 0 0 1 24.000979,1.0000002 23.000981,23.000001 0 0 1 47.00196,24 Z"
   id="path17" /><g
   transform="matrix(1.0000426,0,0,1,-4.2e-5,0)"
   id="g21"><path
     inkscape:connector-curvature="0"
     d="m 40.03,7.531 c 3.712,4.084 5.969,9.514 5.969,15.469 0,12.703 -10.297,23 -23,23 C 17.045,46 11.615,43.744 7.53,40.031 11.708,44.322 17.54,47 23.999,47 c 12.703,0 23,-10.298 23,-23 0,-6.462 -2.677,-12.291 -6.969,-16.469 z"
     style="opacity:0.1"
     id="path19" /></g><g
   transform="matrix(0.078125,0,0,0.07208019,4.5,9.4639599)"
   id="g842"><path
     style="fill:#545d68"
     inkscape:connector-curvature="0"
     id="path2"
     d="m 427.02344,166.29297 v 128.84375 c -18.44532,14.77734 -38.32813,26.82422 -59.1211,36.14453 -5.17187,2.32031 -10.39843,4.47266 -15.67578,6.45703 -41.21875,15.47656 -85.35547,20.65625 -128.51953,15.53906 -49.46875,-5.86328 -97.65625,-25.24609 -138.722655,-58.14062 V 166.29297 Z m 0,0" /><g
     style="fill:#3b454f"
     id="g10"><path
       inkscape:connector-curvature="0"
       id="path4"
       d="m 168.84766,166.29687 v 174.66407 c -29.78907,-10 -58.21094,-25.27735 -83.863285,-45.82032 V 166.29687 Z m 0,0" /><path
       inkscape:connector-curvature="0"
       id="path6"
       d="m 367.90234,193.58594 v 137.69531 c -5.17187,2.32031 -10.39843,4.47266 -15.67578,6.45703 V 193.58594 c 0,-5.30078 3.51172,-9.60547 7.83985,-9.60547 4.32422,0 7.83593,4.30469 7.83593,9.60547 z m 0,0" /><path
       inkscape:connector-curvature="0"
       id="path8"
       d="m 427.02344,166.29297 v 10.44922 L 256.00391,241.94141 84.984375,176.74219 v -10.44922 z m 0,0" /></g><path
     style="fill:#545d68"
     inkscape:connector-curvature="0"
     id="path12"
     d="M 512,98.101562 V 133.89062 L 256,231.49219 0,133.89062 V 98.101562 L 256,0.5 Z m 0,0" /><path
     style="fill:#3b454f"
     inkscape:connector-curvature="0"
     id="path14"
     d="m 256,195.70703 v 35.78516 L 0,133.89062 V 98.101562 Z m 0,0" /><path
     style="fill:#6198ce"
     inkscape:connector-curvature="0"
     id="path16"
     d="m 387.52344,380.65625 c -4.32813,0 -7.83594,-3.51172 -7.83594,-7.83984 V 150.61719 L 252.76562,93.148438 c -3.9414,-1.785157 -5.6914,-6.429688 -3.90625,-10.375 1.78516,-3.941407 6.42579,-5.691407 10.375,-3.90625 l 131.52344,59.554682 c 2.80469,1.26954 4.60156,4.0625 4.60156,7.13672 v 227.25782 c 0,4.32812 -3.50781,7.83984 -7.83593,7.83984 z m 0,0" /><path
     style="fill:#f7d360"
     inkscape:connector-curvature="0"
     id="path18"
     d="m 409.46875,394.76172 c 0,12.11719 -9.82422,21.9414 -21.94141,21.9414 -12.12109,0 -21.94531,-9.82421 -21.94531,-21.9414 0,-12.1211 9.82422,-21.94531 21.94531,-21.94531 12.11719,0 21.94141,9.82421 21.94141,21.94531 z m 0,0" /></g></svg>